<?xml version="1.0" standalone="no"?><!DOCTYPE svg PUBLIC "-//W3C//DTD SVG 20010904//EN" "http://www.w3.org/TR/2001/REC-SVG-20010904/DTD/svg10.dtd"><svg xmlns="http://www.w3.org/2000/svg" version="1.0" width="32" height="32" viewBox="0 0 400.000000 300.000000" preserveAspectRatio="xMidYMid meet"> <g transform="translate(0.000000,300.000000) scale(0.100000,-0.100000)" fill="#49a378" stroke="none"> <path d="M1793 1868 c-6 -7 -13 -41 -16 -75 -3 -43 -15 -82 -40 -131 -67 -131 -81 -220 -51 -323 39 -133 142 -205 309 -216 130 -9 270 36 270 86 0 41 -25 47 -103 22 -57 -19 -88 -22 -159 -19 -162 6 -235 67 -241 204 -7 127 37 213 137 268 124 67 272 31 322 -78 23 -50 25 -136 4 -176 -14 -27 -51 -60 -67 -60 -12 0 -10 72 4 131 12 51 12 52 -17 76 -86 71 -146 82 -221 38 -121 -71 -134 -253 -24 -310 40 -20 98 -19 140 4 35 18 36 18 59 0 69 -56 189 14 221 130 15 56 12 101 -15 191 -14 45 -28 118 -31 161 -9 100 -24 109 -91 50 -25 -23 -51 -41 -57 -42 -6 0 -55 -1 -109 -1 l-97 0 -45 41 c-47 43 -66 49 -82 29z m259 -325 c12 -10 18 -30 18 -56 0 -32 -7 -46 -39 -78 -61 -61 -121 -47 -121 27 0 90 87 157 142 107z"/> </g> </svg>